<?xml version="1.0" encoding="UTF-8"?>
<svg version="1.1" xmlns="http://www.w3.org/2000/svg" width="500" height="500">
<path d="M0 0 C4.01842516 1.33947505 7.19439886 2.48245392 10.84375 4.3984375 C11.74851074 4.87144287 12.65327148 5.34444824 13.58544922 5.83178711 C15.02815186 6.59567749 15.02815186 6.59567749 16.5 7.375 C17.51465332 7.90810791 18.52930664 8.44121582 19.57470703 8.99047852 C27.28844956 13.05767026 34.9437335 17.22761274 42.5859375 21.42724609 C50.55426549 25.79199962 58.61137988 29.97470037 66.68310547 34.14428711 C74.41407021 38.14831296 82.06334469 42.28448133 89.69140625 46.48046875 C96.57648806 50.2548805 103.52421154 53.89636062 110.5 57.5 C118.83958364 61.81006203 127.1336355 66.19221027 135.375 70.6875 C136.30248047 71.1928125 137.22996094 71.698125 138.18554688 72.21875 C141.54245795 74.05808392 144.81288753 75.87525835 148 78 C148.36914349 81.041605 148.36914349 81.041605 148.36076355 85.03604126 C148.36332682 85.76870598 148.3658901 86.5013707 148.36853105 87.25623739 C148.37349279 89.72394232 148.35693727 92.19104236 148.34057617 94.65869141 C148.33973041 96.42251064 148.34020404 98.18633092 148.34190369 99.95014954 C148.34276707 104.74955663 148.325086 109.54874039 148.30418181 114.34809542 C148.28547198 119.35960551 148.28366908 124.37112029 148.28010559 129.38265991 C148.27076835 138.87766371 148.2461319 148.37256431 148.21605712 157.8675226 C148.18256529 168.67508764 148.16604025 179.48265752 148.15097082 190.29026151 C148.11958377 212.52689868 148.06679071 234.76344285 148 257 C144.16700285 255.74466782 140.53413423 254.40637532 136.89892578 252.65649414 C135.44605667 251.95912392 135.44605667 251.95912392 133.96383667 251.24766541 C132.92647369 250.74441238 131.88911072 250.24115936 130.8203125 249.72265625 C129.72357208 249.19325943 128.62683167 248.66386261 127.49685669 248.11842346 C114.89496419 242.01439399 102.38386161 235.7293132 89.875 229.4375 C71.17015012 220.02599515 71.17015012 220.02599515 52.3203125 210.91015625 C34.77332151 202.49271891 17.4068985 193.70344925 0 185 C0 123.95 0 62.9 0 0 Z " fill="#000000" transform="translate(93,238)"/>
<path d="M0 0 C0 61.05 0 122.1 0 185 C-60 215 -60 215 -83 226 C-87.58985187 228.26474344 -92.17214314 230.53648746 -96.7421875 232.83984375 C-97.88688507 233.41408585 -99.03158264 233.98832794 -100.21096802 234.57997131 C-103.76666871 236.3637852 -107.32101142 238.15027771 -110.875 239.9375 C-115.62113589 242.32413198 -120.368796 244.70770125 -125.1171875 247.08984375 C-126.17976776 247.62528305 -127.24234802 248.16072235 -128.33712769 248.71238708 C-144.85811748 257 -144.85811748 257 -148 257 C-148 197.93 -148 138.86 -148 78 C-137.34886043 72.08270024 -126.71974009 66.19790709 -115.94219971 60.52554321 C-113.78389904 59.38955021 -111.62690996 58.25109855 -109.47021484 57.11206055 C-107.21078028 55.91877226 -104.95128892 54.72559362 -102.69143677 53.53309631 C-94.99592099 49.47217953 -87.30912923 45.3949137 -79.625 41.3125 C-78.96270386 40.96072693 -78.30040771 40.60895386 -77.61804199 40.246521 C-68.44262578 35.37234341 -59.28007763 30.47478857 -50.125 25.5625 C-45.41783489 23.03948145 -40.70934846 20.5189403 -36 18 C-35.2778833 17.61360352 -34.5557666 17.22720703 -33.81176758 16.82910156 C-29.10892955 14.31334008 -24.40339965 11.80271363 -19.69476318 9.29782104 C-18.15512498 8.47793241 -16.61625754 7.65659466 -15.07818604 6.83377075 C-12.93699133 5.68865644 -10.79309031 4.54877751 -8.6484375 3.41015625 C-8.00400696 3.06408325 -7.35957642 2.71801025 -6.69561768 2.3614502 C-2.22821895 0 -2.22821895 0 0 0 Z " fill="#3AC7C2" transform="translate(406,238)"/>
<path d="M0 0 C12.33565335 12.63652294 11.07326379 33.0740506 10.9375 49.4375 C10.93284729 50.43255554 10.92819458 51.42761108 10.92340088 52.45281982 C10.73646705 86.56721591 4.8085033 118.38230357 -6.4375 150.625 C-6.77620117 151.60500977 -7.11490234 152.58501953 -7.46386719 153.59472656 C-33.98115318 229.52028901 -33.98115318 229.52028901 -52.4375 240.625 C-54.68590625 241.48136077 -56.9676773 242.25201782 -59.265625 242.96484375 C-59.93229187 243.17307266 -60.59895874 243.38130157 -61.28582764 243.59584045 C-62.70011676 244.03571413 -64.11561978 244.47170125 -65.53222656 244.90405273 C-67.64167584 245.54850048 -69.74678957 246.2056959 -71.8515625 246.86523438 C-98.04381977 255.00527162 -98.04381977 255.00527162 -105.4375 254.625 C-104.07460652 250.96320049 -102.41671849 247.73941103 -100.3828125 244.40625 C-99.77421387 243.40263428 -99.16561523 242.39901855 -98.53857422 241.36499023 C-97.88646973 240.29579346 -97.23436523 239.22659668 -96.5625 238.125 C-95.19109097 235.85642129 -93.82082607 233.58721595 -92.453125 231.31640625 C-92.11010345 230.74712906 -91.76708191 230.17785187 -91.41366577 229.59132385 C-86.26190053 221.02619012 -81.31330905 212.34954166 -76.4375 203.625 C-75.93041504 202.72056152 -75.42333008 201.81612305 -74.90087891 200.88427734 C-40.90804736 142.94245398 -40.90804736 142.94245398 -30.4375 78.625 C-31.21259276 76.05778525 -32.16808068 74.00516123 -33.4375 71.625 C-41.76816419 70.48900034 -48.53031176 74.83496137 -55.12890625 79.546875 C-64.52126138 87.44149242 -71.32258489 97.73325771 -78.4375 107.625 C-79.55552677 109.16830413 -80.67399652 110.71128748 -81.79296875 112.25390625 C-83.9320164 115.20779837 -86.06355207 118.16694364 -88.19140625 121.12890625 C-91.56962218 125.82184288 -95.00024602 130.47521051 -98.4375 135.125 C-102.975114 141.26508218 -107.47729254 147.42845874 -111.9375 153.625 C-116.39770992 159.82154468 -120.9001319 165.98473346 -125.4375 172.125 C-130.11458152 178.45679847 -134.7648435 184.80677615 -139.375 191.1875 C-139.91415039 191.93370605 -140.45330078 192.67991211 -141.00878906 193.44873047 C-144.49067223 198.28057645 -147.91609697 203.14551139 -151.265625 208.0703125 C-151.65234375 208.58335937 -152.0390625 209.09640625 -152.4375 209.625 C-152.7675 209.625 -153.0975 209.625 -153.4375 209.625 C-153.86126933 201.09596159 -154.17757499 192.57155606 -154.37011909 184.03448009 C-154.46271308 180.06639884 -154.58731344 176.10568189 -154.79541016 172.1418457 C-155.98362218 148.8847524 -152.65839983 134.57245012 -137.71765137 116.421875 C-134.82534477 112.8741193 -132.1774517 109.17940992 -129.53062439 105.44697571 C-124.16025889 97.91515972 -118.41506332 90.68169864 -112.4375 83.625 C-111.54515282 82.55894525 -110.65324952 81.49251885 -109.76171875 80.42578125 C-104.81222379 74.52098471 -99.78434866 68.70286458 -94.59765625 63.00390625 C-93.17681735 61.43918494 -91.76754897 59.86386471 -90.37109375 58.27734375 C-81.3931866 48.10899588 -71.83632745 38.34596786 -61.4375 29.625 C-60.53386719 28.83222656 -59.63023437 28.03945313 -58.69921875 27.22265625 C-18.85784672 -7.54313869 -18.85784672 -7.54313869 0 0 Z " fill="#000000" transform="translate(411.4375,6.375)"/>
<path d="M0 0 C15.99619838 3.65574371 31.85807308 13.48401924 45 23 C45.60908203 23.44069824 46.21816406 23.88139648 46.84570312 24.33544922 C56.24125983 31.16921251 65.2367661 38.37610772 74 46 C74.73605469 46.63550781 75.47210938 47.27101562 76.23046875 47.92578125 C78.16463378 49.6051461 80.08212089 51.30207059 82 53 C82.66273926 53.57790283 83.32547852 54.15580566 84.00830078 54.7512207 C91.50196183 61.37059419 98.55759663 68.40545788 105.61450195 75.48413086 C107.69044426 77.56545189 109.77170422 79.64134813 111.85351562 81.71679688 C113.19823752 83.06217938 114.54264929 84.40787194 115.88671875 85.75390625 C116.49730637 86.36246964 117.10789398 86.97103302 117.73698425 87.59803772 C121.34813545 91.22855298 124.79891915 94.94721705 128.09725952 98.8653717 C130.01373922 101.08481055 130.01373922 101.08481055 132.4100647 103.22605896 C137.1777332 107.81327528 139.55333122 111.02418818 140.02172852 117.73486328 C140.02032 120.26379411 139.97042959 122.79303796 139.87890625 125.3203125 C139.8620798 126.67361172 139.84928772 128.02696649 139.84031677 129.38034058 C139.80626323 132.90979535 139.71815394 136.43581385 139.61798096 139.96392822 C139.52522189 143.57704185 139.4846637 147.19072155 139.43945312 150.8046875 C139.34348504 157.87118134 139.19028176 164.93536413 139 172 C136.6034187 169.62843265 134.36868588 167.31947596 132.37109375 164.6015625 C131.89921631 163.96452393 131.42733887 163.32748535 130.94116211 162.67114258 C130.19684937 161.658302 130.19684937 161.658302 129.4375 160.625 C121.15826057 149.48314273 112.6251751 138.61897496 103.6015625 128.0703125 C101.25742299 125.32265955 99.00116684 122.51199772 96.75 119.6875 C92.30646967 114.22099866 87.51697547 109.11239653 82.66699219 104.00854492 C79.38378005 100.55343455 76.16134593 97.06287539 73.00390625 93.4921875 C67.06410464 86.86926439 60.79600669 80.57359884 54.51586914 74.27563477 C52.43106956 72.18103934 50.35719333 70.07599515 48.28320312 67.97070312 C46.93815943 66.6191351 45.5924782 65.26820117 44.24609375 63.91796875 C43.63753036 63.29705856 43.02896698 62.67614838 42.40196228 62.03642273 C35.79074767 55.45878045 28.61842818 50.31400367 19 50 C16.36557442 51.12903954 14.97727233 52.02272767 13 54 C9.86802617 80.09978193 36.2768756 116.23322419 48.35058594 138.02197266 C50.10662544 141.1925129 51.85418307 144.36764833 53.6015625 147.54296875 C59.68406405 158.56869203 65.85591926 169.52676451 72.25 180.375 C76.79485786 188.10087364 81.18869967 195.88598052 85.375 203.8125 C85.84583008 204.69663574 86.31666016 205.58077148 86.80175781 206.49169922 C87.22553711 207.30525879 87.64931641 208.11881836 88.0859375 208.95703125 C88.4576709 209.66835205 88.8294043 210.37967285 89.21240234 211.11254883 C90 213 90 213 90 216 C86.48672644 215.4179329 83.66987421 214.51043428 80.5078125 212.8828125 C79.21943481 212.22756592 79.21943481 212.22756592 77.9050293 211.55908203 C76.98761963 211.08583496 76.07020996 210.61258789 75.125 210.125 C66.10122873 205.53381203 57.01727522 201.09954713 47.85400391 196.79345703 C46.06557147 195.94728585 44.28369747 195.08708801 42.50927734 194.21191406 C40.91452753 193.44169242 39.29550105 192.71855186 37.65087891 192.06152344 C26.00654484 186.86554489 20.13881903 171.00231872 14.8125 160.25 C14.49906647 159.62015198 14.18563293 158.99030396 13.86270142 158.34136963 C-0.99611899 128.37438385 -14.94782928 95.74952157 -22 63 C-22.24121582 61.9157373 -22.24121582 61.9157373 -22.48730469 60.80957031 C-24.72804645 50.36355561 -25.29382603 40.04764275 -25.375 29.375 C-25.38893799 28.18914307 -25.40287598 27.00328613 -25.41723633 25.78149414 C-25.37286487 17.64883945 -24.9219455 10.43328596 -19.5 4.0625 C-13.2129648 -1.12430404 -7.93534778 -0.74544176 0 0 Z " fill="#3AC7C2" transform="translate(103,45)"/>
</svg>
